<svg width="256" height="254" viewBox="0 0 256 254" fill="none" xmlns="http://www.w3.org/2000/svg">
<path d="M45.1295 188.54C43.3789 199.919 35.2825 222.093 32.0002 232.305C32.0002 244.559 46.7473 247.834 55.5002 248.749C72.9505 250.573 100.711 248.749 102.023 237.775C104.377 218.081 104.211 209.328 124.999 197.293C141.63 187.665 172.318 169.94 188 162.282C192.741 159.364 199.5 151.249 191.283 143.682C182.62 135.705 187.177 125.625 189 121.249C193.377 116.873 209.706 65.2492 201.5 65.249C194.936 65.2489 192.188 70.9667 190 74.249C182.341 73.1549 178.61 80.2236 175.328 85.6942C172.046 91.1647 157.822 109.764 144.693 115.235C131.564 120.706 105.305 130.553 99.6687 134.929C99.2547 127.618 97.3145 123.226 102.023 118.517C110.776 109.765 115.152 94.4469 107.493 86.7884C97.6465 98.8234 83.9636 109.329 70.2939 127.27C52.7882 150.246 47.3177 174.317 45.1295 188.54Z" fill="white"/>
<path d="M92.176 162.282C99.2537 149.643 100.024 141.209 99.6687 134.929M99.6687 134.929C99.2547 127.618 97.3145 123.226 102.023 118.517C110.776 109.765 115.152 94.4469 107.493 86.7884C97.6465 98.8234 83.9636 109.329 70.2939 127.27C52.7882 150.246 47.3177 174.317 45.1295 188.54C43.3789 199.919 35.2825 222.093 32.0002 232.305C32.0002 244.559 46.7473 247.834 55.5002 248.749C72.9505 250.573 100.711 248.749 102.023 237.775C104.377 218.081 104.211 209.328 124.999 197.293C141.63 187.665 172.318 169.94 188 162.282C192.741 159.364 199.5 151.249 191.283 143.682C182.62 135.705 187.177 125.625 189 121.249C193.377 116.873 209.706 65.2492 201.5 65.249C194.936 65.2489 192.188 70.9667 190 74.249M99.6687 134.929C105.305 130.553 131.564 120.706 144.693 115.235C157.822 109.764 172.046 91.1647 175.328 85.6942C178.61 80.2236 182.341 73.1549 190 74.249M190 74.249C188.355 77.7449 170.295 123.769 145.787 131.647" stroke="#040404"/>
<path d="M74.9751 45.6094L105.287 31.6394L137.875 24.0979L173.48 48.9432L139.805 133.232L61.7046 86.8424L74.9751 45.6094Z" fill="#03BCE4"/>
<path d="M74.7794 45.7473L105.091 31.7773L137.679 24.2359L150.662 56.7868L105.091 31.7773L84.2616 79.404L74.7794 45.7473Z" fill="white"/>
<path d="M139.13 133.004L83.7819 79.0378L104.612 31.4111L150.182 56.4206L139.13 133.004Z" fill="#3CEAAA"/>
<path d="M105 31.9998L150.929 56.5989L84.5285 79.2161L105 31.9998Z" fill="#040404"/>
<path d="M137.788 24.1589L173.394 49.0042L150.772 56.7099L137.788 24.1589Z" fill="#3CEAAA"/>
<circle cx="231" cy="65" r="1" fill="white"/>
<circle cx="188" cy="133" r="1" fill="white"/>
<path d="M104.9 32.0142L74.5883 45.9842M104.9 32.0142L137.488 24.4727M104.9 32.0142L150.471 57.0236M104.9 32.0142L84.0705 79.6408M74.5883 45.9842L61.3178 87.2172M74.5883 45.9842L84.0705 79.6408M61.3178 87.2172L139.418 133.607M61.3178 87.2172L84.0705 79.6408M139.418 133.607L173.093 49.318M139.418 133.607L84.0705 79.6408M139.418 133.607L150.471 57.0236M173.093 49.318L137.488 24.4727M173.093 49.318L150.471 57.0236M137.488 24.4727L150.471 57.0236M84.0705 79.6408L150.471 57.0236" stroke="#040404"/>
<circle cx="86.0002" cy="1" r="1" fill="white"/>
<circle cx="27.2121" cy="73" r="1" fill="white"/>
<path d="M159 45.5002L179.692 39.3182" stroke="white"/>
<line x1="178.86" y1="14.2963" x2="202.852" y2="7.26897" stroke="white"/>
<circle cx="157.127" cy="45.9049" r="2" transform="rotate(-17.1575 157.127 45.9049)" stroke="white"/>
<circle cx="180.127" cy="38.8751" r="2" transform="rotate(-17.1575 180.127 38.8751)" fill="#040404" stroke="white"/>
<circle cx="177.127" cy="14.8749" r="2" transform="rotate(-17.1575 177.127 14.8749)" fill="#040404" stroke="white"/>
<path d="M188.373 123.988C199.314 132.741 193.844 141.493 190.561 142.588C181.808 143.682 169.773 130.552 161.02 122.894C152.268 115.235 144.609 115.235 131.48 108.67C118.35 102.106 123.821 93.3528 126.009 94.4469C128.197 95.541 156.644 104.294 161.02 106.482C165.397 108.67 177.432 115.235 188.373 123.988Z" fill="white" stroke="#040404"/>
<path d="M159.575 129.028C175.986 133.405 191.5 139.249 194.586 150.91L183.5 162L162.856 159.663C167.233 158.204 176.205 154.849 177.08 153.099C178.174 150.91 166.14 145.44 160.669 143.252C155.199 141.063 145.352 142.157 137.693 143.252C126.863 144.799 121.281 137.625 123.47 136.687C131.128 133.405 144.898 125.114 159.575 129.028Z" fill="white"/>
<path d="M195 149.749C193 140.249 175.986 133.834 159.575 129.458C144.898 125.544 131.128 133.834 123.47 137.117C121.281 138.055 126.863 145.229 137.693 143.681C145.352 142.587 155.199 141.493 160.669 143.681C166.14 145.87 177.536 151.392 175.5 152.749C174 153.749 167 156.749 162.856 160.093" stroke="#040404"/>
<ellipse cx="67.0002" cy="235.249" rx="35" ry="17.5" fill="white" stroke="#040404"/>
<mask id="path-22-inside-1" fill="white">
<path fill-rule="evenodd" clip-rule="evenodd" d="M146.623 211.241L146.425 211.583L146.42 211.58C141.401 219.699 128.359 221.024 117.036 214.487C105.713 207.95 100.339 195.992 104.861 187.586L104.856 187.583L105.053 187.241L107.856 182.387L108.931 183.008C115.182 178.563 125.475 178.703 134.64 183.995C143.806 189.287 149.073 198.13 148.349 205.766L149.425 206.387L146.623 211.241Z"/>
</mask>
<path fill-rule="evenodd" clip-rule="evenodd" d="M146.623 211.241L146.425 211.583L146.42 211.58C141.401 219.699 128.359 221.024 117.036 214.487C105.713 207.95 100.339 195.992 104.861 187.586L104.856 187.583L105.053 187.241L107.856 182.387L108.931 183.008C115.182 178.563 125.475 178.703 134.64 183.995C143.806 189.287 149.073 198.13 148.349 205.766L149.425 206.387L146.623 211.241Z" fill="white"/>
<path d="M146.425 211.583L145.925 212.449L146.791 212.949L147.291 212.083L146.425 211.583ZM146.42 211.58L146.92 210.714L146.079 210.229L145.569 211.055L146.42 211.58ZM104.861 187.586L105.741 188.06L106.201 187.205L105.361 186.72L104.861 187.586ZM104.856 187.583L103.99 187.083L103.49 187.949L104.356 188.449L104.856 187.583ZM105.053 187.241L104.187 186.741L105.053 187.241ZM107.856 182.387L108.356 181.521L107.49 181.021L106.99 181.887L107.856 182.387ZM108.931 183.008L108.431 183.874L108.987 184.195L109.511 183.823L108.931 183.008ZM148.349 205.766L147.354 205.672L147.293 206.311L147.849 206.632L148.349 205.766ZM149.425 206.387L150.291 206.887L150.791 206.021L149.925 205.521L149.425 206.387ZM145.757 210.741L145.559 211.083L147.291 212.083L147.489 211.741L145.757 210.741ZM146.925 210.717L146.92 210.714L145.92 212.446L145.925 212.449L146.925 210.717ZM145.569 211.055C143.263 214.785 139.069 217.028 133.993 217.535C128.918 218.041 123.034 216.796 117.536 213.621L116.536 215.353C122.36 218.716 128.659 220.077 134.191 219.525C139.721 218.973 144.558 216.494 147.27 212.106L145.569 211.055ZM117.536 213.621C112.037 210.446 108.017 205.974 105.918 201.326C103.818 196.676 103.664 191.922 105.741 188.06L103.98 187.113C101.536 191.655 101.808 197.084 104.095 202.149C106.383 207.215 110.711 211.99 116.536 215.353L117.536 213.621ZM105.361 186.72L105.356 186.717L104.356 188.449L104.361 188.452L105.361 186.72ZM105.722 188.083L105.919 187.741L104.187 186.741L103.99 187.083L105.722 188.083ZM105.919 187.741L108.722 182.887L106.99 181.887L104.187 186.741L105.919 187.741ZM107.356 183.253L108.431 183.874L109.431 182.142L108.356 181.521L107.356 183.253ZM109.511 183.823C115.348 179.673 125.199 179.699 134.14 184.861L135.14 183.129C125.75 177.707 115.017 177.454 108.352 182.193L109.511 183.823ZM134.14 184.861C143.081 190.023 148.03 198.542 147.354 205.672L149.345 205.861C150.117 197.719 144.53 188.55 135.14 183.129L134.14 184.861ZM147.849 206.632L148.925 207.253L149.925 205.521L148.849 204.9L147.849 206.632ZM148.559 205.887L145.757 210.741L147.489 211.741L150.291 206.887L148.559 205.887Z" fill="#040404" mask="url(#path-22-inside-1)"/>
<path d="M149.742 204.838C147.425 208.851 143.076 211.234 137.847 211.793C132.618 212.351 126.548 211.077 120.89 207.81C115.233 204.544 111.094 199.924 108.963 195.117C106.833 190.309 106.722 185.351 109.039 181.338C111.356 177.325 115.704 174.942 120.934 174.383C126.162 173.825 132.233 175.099 137.89 178.366C143.548 181.632 147.687 186.252 149.817 191.059C151.948 195.867 152.059 200.825 149.742 204.838Z" fill="#3CEAAA" stroke="#040404"/>
<path d="M145.845 202.588C149.297 196.609 144.922 187.621 136.073 182.513C127.225 177.404 117.254 178.109 113.802 184.088" stroke="#040404"/>
<mask id="path-26-inside-2" fill="white">
<path fill-rule="evenodd" clip-rule="evenodd" d="M39.8197 100.917C39.8325 100.895 39.8452 100.873 39.8578 100.851C39.8704 100.829 39.883 100.807 39.8954 100.785L42.0751 97.0101L41.2242 96.5188C41.7969 90.4767 37.6289 83.4792 30.3766 79.292C23.1242 75.1049 14.9802 74.9941 10.0339 78.5111L9.18255 78.0195L6.80874 82.1311L6.81303 82.1336C3.23476 88.7845 7.48682 98.2467 16.4465 103.42C25.4062 108.592 35.7267 107.544 39.6974 101.119L39.7013 101.122L39.8197 100.917Z"/>
</mask>
<path fill-rule="evenodd" clip-rule="evenodd" d="M39.8197 100.917C39.8325 100.895 39.8452 100.873 39.8578 100.851C39.8704 100.829 39.883 100.807 39.8954 100.785L42.0751 97.0101L41.2242 96.5188C41.7969 90.4767 37.6289 83.4792 30.3766 79.292C23.1242 75.1049 14.9802 74.9941 10.0339 78.5111L9.18255 78.0195L6.80874 82.1311L6.81303 82.1336C3.23476 88.7845 7.48682 98.2467 16.4465 103.42C25.4062 108.592 35.7267 107.544 39.6974 101.119L39.7013 101.122L39.8197 100.917Z" fill="white"/>
<path d="M39.8197 100.917L38.9573 100.41L38.9537 100.417L39.8197 100.917ZM39.8954 100.785L39.0294 100.285L39.0258 100.292L39.8954 100.785ZM42.0751 97.0101L42.9411 97.5101L43.4411 96.644L42.5751 96.144L42.0751 97.0101ZM41.2242 96.5188L40.2287 96.4245L40.1681 97.0638L40.7242 97.3848L41.2242 96.5188ZM10.0339 78.5111L9.53389 79.3771L10.09 79.6982L10.6134 79.3261L10.0339 78.5111ZM9.18255 78.0195L9.68255 77.1535L8.81652 76.6535L8.31652 77.5195L9.18255 78.0195ZM6.80874 82.1311L5.94271 81.6311L5.44271 82.4971L6.30874 82.9971L6.80874 82.1311ZM6.81303 82.1336L7.69367 82.6074L8.15346 81.7528L7.31303 81.2676L6.81303 82.1336ZM39.6974 101.119L40.1974 100.253L39.357 99.7682L38.8468 100.594L39.6974 101.119ZM39.7013 101.122L39.2013 101.988L40.0673 102.488L40.5673 101.622L39.7013 101.122ZM38.9918 100.351C38.9804 100.371 38.9689 100.391 38.9573 100.41L40.6821 101.423C40.6961 101.399 40.71 101.375 40.7238 101.351L38.9918 100.351ZM39.0258 100.292C39.0145 100.311 39.0032 100.331 38.9918 100.351L40.7238 101.351C40.7377 101.327 40.7514 101.303 40.7651 101.279L39.0258 100.292ZM41.2091 96.5101L39.0294 100.285L40.7614 101.285L42.9411 97.5101L41.2091 96.5101ZM40.7242 97.3848L41.5751 97.8761L42.5751 96.144L41.7242 95.6528L40.7242 97.3848ZM29.8766 80.1581C36.9044 84.2156 40.7534 90.8881 40.2287 96.4245L42.2198 96.6132C42.8403 90.0654 38.3535 82.7428 30.8766 78.426L29.8766 80.1581ZM10.6134 79.3261C15.1457 76.1034 22.8488 76.1005 29.8766 80.1581L30.8766 78.426C23.3996 74.1092 14.8147 73.8848 9.45441 77.6961L10.6134 79.3261ZM8.68255 78.8856L9.53389 79.3771L10.5339 77.645L9.68255 77.1535L8.68255 78.8856ZM7.67476 82.6311L10.0486 78.5195L8.31652 77.5195L5.94271 81.6311L7.67476 82.6311ZM7.31303 81.2676L7.30874 81.2651L6.30874 82.9971L6.31303 82.9996L7.31303 81.2676ZM16.9465 102.554C12.6295 100.061 9.48056 96.5535 7.83941 92.9193C6.1975 89.2834 6.0876 85.5926 7.69367 82.6074L5.9324 81.6598C3.96019 85.3255 4.18718 89.6912 6.01666 93.7424C7.84689 97.7953 11.3038 101.605 15.9465 104.286L16.9465 102.554ZM38.8468 100.594C37.0646 103.477 33.8133 105.227 29.8436 105.623C25.8757 106.019 21.2635 105.046 16.9465 102.554L15.9465 104.286C20.5892 106.966 25.6171 108.055 30.0421 107.614C34.4653 107.172 38.3596 105.186 40.5481 101.645L38.8468 100.594ZM40.2013 100.256L40.1974 100.253L39.1974 101.985L39.2013 101.988L40.2013 100.256ZM38.9537 100.417L38.8352 100.622L40.5673 101.622L40.6857 101.417L38.9537 100.417Z" fill="#040404" mask="url(#path-26-inside-2)"/>
<path d="M42.2361 95.7331C40.4236 98.8724 37.0168 100.745 32.9032 101.184C28.7902 101.624 24.0089 100.622 19.5492 98.0469C15.0895 95.4721 11.8309 91.8325 10.155 88.0507C8.47877 84.2685 8.39708 80.3819 10.2096 77.2426C12.0221 74.1032 15.4289 72.2306 19.5424 71.7912C23.6555 71.3517 28.4368 72.354 32.8965 74.9288C37.3561 77.5036 40.6148 81.1432 42.2907 84.9249C43.9669 88.7071 44.0486 92.5937 42.2361 95.7331Z" fill="#3CEAAA" stroke="#040404"/>
<path d="M39.2423 94.0043C41.9736 89.2736 38.512 82.1616 31.5105 78.1193C24.509 74.077 16.619 74.6351 13.8877 79.3658" stroke="#040404"/>
<line x1="179.503" y1="36.7988" x2="177.503" y2="16.7988" stroke="white"/>
<rect x="238.393" y="154.332" width="15" height="27" transform="rotate(45 238.393 154.332)" fill="#3CEAAA" stroke="#040404"/>
<rect x="238.899" y="154.132" width="10.25" height="10.25" fill="white" stroke="#040404"/>
<rect x="219.132" y="173.899" width="10.25" height="10.25" fill="white" stroke="#040404"/>
<line x1="15.5972" y1="153" x2="15.5972" y2="162.677" stroke="white"/>
<line x1="15.5972" y1="168.323" x2="15.5972" y2="178" stroke="white"/>
<line x1="3.00018" y1="165.403" x2="12.6776" y2="165.403" stroke="white"/>
<line x1="18.3226" y1="165.403" x2="28" y2="165.403" stroke="white"/>
<line x1="201.791" y1="218" x2="201.791" y2="223.032" stroke="white"/>
<line x1="201.791" y1="225.968" x2="201.791" y2="231" stroke="white"/>
<line x1="195" y1="224.21" x2="200.032" y2="224.21" stroke="white"/>
<line x1="202.968" y1="224.21" x2="208" y2="224.21" stroke="white"/>
<path d="M235.428 112.468L235.279 123.279L224.849 123.809L224.999 112.999L235.428 112.468Z" fill="white"/>
<path d="M225.91 102.95L235.428 112.468L224.999 112.999L224.849 123.809L214.95 113.91L215.48 103.48L225.91 102.95Z" fill="#03BCE4"/>
<path d="M235.428 112.468L235.279 123.279L224.849 123.809M235.428 112.468L225.91 102.95L215.48 103.48L214.95 113.91L224.849 123.809M235.428 112.468L224.999 112.999L224.849 123.809" stroke="black"/>
</svg>
