<svg width="32" height="32" viewBox="0 0 32 32" fill="none" xmlns="http://www.w3.org/2000/svg">
<circle cx="16" cy="16" r="16" fill="#3CEAAA"/>
<path fill-rule="evenodd" clip-rule="evenodd" d="M12.3479 8.76439C13.3883 7.74521 15.0527 7.7452 16.0931 8.76439L18.5563 11.1772C19.6275 12.2266 19.6275 13.9512 18.5563 15.0005L14.2637 19.2055L17.3422 22.2213C17.9288 22.7958 17.9385 23.7371 17.3639 24.3237C16.7893 24.9102 15.8481 24.9199 15.2615 24.3453L7.8034 17.0394C6.7322 15.9901 6.7322 14.2655 7.8034 13.2161L12.3479 8.76439ZM12.1392 17.1244L16.2587 13.0889L14.2205 11.0923L10.1009 15.1278L12.1392 17.1244Z" fill="#185E44"/>
<path fill-rule="evenodd" clip-rule="evenodd" d="M18.5919 10.8033C19.6324 9.7841 21.2968 9.7841 22.3372 10.8033L24.8003 13.2161C25.8715 14.2655 25.8715 15.9901 24.8003 17.0394L17.3422 24.3453C16.7557 24.9199 15.8144 24.9102 15.2398 24.3237C14.6653 23.7371 14.675 22.7959 15.2615 22.2213L18.3401 19.2055L16.1288 17.0394C15.0576 15.9901 15.0576 14.2655 16.1288 13.2161L18.5919 10.8033ZM20.4646 17.1244L22.5028 15.1278L20.4646 13.1312L18.4264 15.1278L20.4646 17.1244Z" fill="#185E44"/>
<path opacity="0.95" d="M18.4252 15.1328L16.2601 13.0763L14.1833 15.1158L16.2971 17.2188L18.4252 15.1328Z" fill="#185E44"/>
</svg>
