<svg width="26" height="24" viewBox="0 0 26 24" fill="none" xmlns="http://www.w3.org/2000/svg">
<path fill-rule="evenodd" clip-rule="evenodd" d="M7.39212 1.97739C8.80453 0.5938 11.0641 0.593797 12.4765 1.97739L15.8203 5.25297C17.2746 6.6775 17.2746 9.01877 15.8203 10.4433L9.99289 16.1518L14.1722 20.2459C14.9685 21.0259 14.9817 22.3037 14.2016 23.1C13.4216 23.8962 12.1438 23.9094 11.3475 23.1294L1.22274 13.2112C-0.231472 11.7867 -0.231474 9.4454 1.22274 8.02086L7.39212 1.97739ZM7.10876 13.3266L12.7013 7.84814L9.93432 5.13762L4.34177 10.616L7.10876 13.3266Z" fill="#C3C6CC"/>
<path fill-rule="evenodd" clip-rule="evenodd" d="M15.8686 4.74522C17.281 3.36162 19.5406 3.36162 20.953 4.74522L24.2969 8.02079C25.7511 9.44532 25.7511 11.7866 24.2969 13.2111L14.172 23.1293C13.3758 23.9093 12.098 23.8961 11.318 23.0999C10.5379 22.3036 10.5511 21.0258 11.3474 20.2458L15.5267 16.1517L12.5248 13.2111C11.0706 11.7866 11.0706 9.44532 12.5248 8.02079L15.8686 4.74522ZM18.4108 13.3265L21.1778 10.616L18.4108 7.90544L15.6438 10.616L18.4108 13.3265Z" fill="#F3F4F5"/>
<path opacity="0.95" d="M15.6422 10.6229L12.7029 7.83105L9.88367 10.5999L12.7532 13.4547L15.6422 10.6229Z" fill="#DBDDE0"/>
</svg>
