<svg width="20" height="19" viewBox="0 0 20 19" fill="none" xmlns="http://www.w3.org/2000/svg">
<g clip-path="url(#clip0)">
<path d="M18.0971 1.1969L11.2173 6.35054L12.4967 3.31333L18.0971 1.1969Z" fill="#E17726" stroke="#E17726" stroke-width="0.151515" stroke-linecap="round" stroke-linejoin="round"/>
<path d="M2.22815 1.1969L9.04665 6.39864L7.82859 3.31333L2.22815 1.1969Z" fill="#E27625" stroke="#E27625" stroke-width="0.151515" stroke-linecap="round" stroke-linejoin="round"/>
<path d="M15.6202 13.1465L13.7896 15.9776L17.7092 17.0701L18.8321 13.2083L15.6202 13.1465Z" fill="#E27625" stroke="#E27625" stroke-width="0.151515" stroke-linecap="round" stroke-linejoin="round"/>
<path d="M1.5 13.2083L2.616 17.0701L6.52883 15.9776L4.7051 13.1465L1.5 13.2083Z" fill="#E27625" stroke="#E27625" stroke-width="0.151515" stroke-linecap="round" stroke-linejoin="round"/>
<path d="M6.31786 8.36389L5.22906 10.0268L9.10787 10.2055L8.97855 5.97949L6.31786 8.36389Z" fill="#E27625" stroke="#E27625" stroke-width="0.151515" stroke-linecap="round" stroke-linejoin="round"/>
<path d="M14.0074 8.36392L11.3058 5.9314L11.2174 10.2055L15.0962 10.0268L14.0074 8.36392Z" fill="#E27625" stroke="#E27625" stroke-width="0.151515" stroke-linecap="round" stroke-linejoin="round"/>
<path d="M6.52881 15.9776L8.87647 14.83L6.85546 13.2358L6.52881 15.9776Z" fill="#E27625" stroke="#E27625" stroke-width="0.151515" stroke-linecap="round" stroke-linejoin="round"/>
<path d="M11.4487 14.83L13.7896 15.9776L13.4698 13.2358L11.4487 14.83Z" fill="#E27625" stroke="#E27625" stroke-width="0.151515" stroke-linecap="round" stroke-linejoin="round"/>
<path d="M13.7896 15.9776L11.4487 14.8301L11.6393 16.3693L11.6189 17.0221L13.7896 15.9776Z" fill="#D5BFB2" stroke="#D5BFB2" stroke-width="0.151515" stroke-linecap="round" stroke-linejoin="round"/>
<path d="M6.52881 15.9776L8.70639 17.0221L8.69277 16.3693L8.87652 14.8301L6.52881 15.9776Z" fill="#D5BFB2" stroke="#D5BFB2" stroke-width="0.151515" stroke-linecap="round" stroke-linejoin="round"/>
<path d="M8.74724 12.2188L6.80103 11.6416L8.17566 11.0026L8.74724 12.2188Z" fill="#233447" stroke="#233447" stroke-width="0.151515" stroke-linecap="round" stroke-linejoin="round"/>
<path d="M11.578 12.2188L12.1496 11.0026L13.531 11.6416L11.578 12.2188Z" fill="#233447" stroke="#233447" stroke-width="0.151515" stroke-linecap="round" stroke-linejoin="round"/>
<path d="M6.52881 15.9776L6.86902 13.1465L4.70508 13.2084L6.52881 15.9776Z" fill="#CC6228" stroke="#CC6228" stroke-width="0.151515" stroke-linecap="round" stroke-linejoin="round"/>
<path d="M13.4562 13.1465L13.7896 15.9776L15.6201 13.2084L13.4562 13.1465Z" fill="#CC6228" stroke="#CC6228" stroke-width="0.151515" stroke-linecap="round" stroke-linejoin="round"/>
<path d="M15.0962 10.0269L11.2173 10.2055L11.578 12.2189L12.1496 11.0026L13.531 11.6417L15.0962 10.0269Z" fill="#CC6228" stroke="#CC6228" stroke-width="0.151515" stroke-linecap="round" stroke-linejoin="round"/>
<path d="M6.80099 11.6417L8.17557 11.0026L8.7472 12.2189L9.10785 10.2055L5.22906 10.0269L6.80099 11.6417Z" fill="#CC6228" stroke="#CC6228" stroke-width="0.151515" stroke-linecap="round" stroke-linejoin="round"/>
<path d="M5.22913 10.0269L6.8555 13.2359L6.80108 11.6417L5.22913 10.0269Z" fill="#E27525" stroke="#E27525" stroke-width="0.151515" stroke-linecap="round" stroke-linejoin="round"/>
<path d="M13.5311 11.6417L13.4698 13.2359L15.0962 10.0269L13.5311 11.6417Z" fill="#E27525" stroke="#E27525" stroke-width="0.151515" stroke-linecap="round" stroke-linejoin="round"/>
<path d="M9.10795 10.2054L8.74725 12.2188L9.20318 14.5964L9.30527 11.463L9.10795 10.2054Z" fill="#E27525" stroke="#E27525" stroke-width="0.151515" stroke-linecap="round" stroke-linejoin="round"/>
<path d="M11.2174 10.2054L11.0269 11.4561L11.1221 14.5964L11.5781 12.2188L11.2174 10.2054Z" fill="#E27525" stroke="#E27525" stroke-width="0.151515" stroke-linecap="round" stroke-linejoin="round"/>
<path d="M11.5781 12.2188L11.1221 14.5963L11.4488 14.83L13.4698 13.2358L13.5311 11.6416L11.5781 12.2188Z" fill="#F5841F" stroke="#F5841F" stroke-width="0.151515" stroke-linecap="round" stroke-linejoin="round"/>
<path d="M6.80103 11.6416L6.8555 13.2358L8.87652 14.83L9.20316 14.5963L8.74724 12.2188L6.80103 11.6416Z" fill="#F5841F" stroke="#F5841F" stroke-width="0.151515" stroke-linecap="round" stroke-linejoin="round"/>
<path d="M11.6189 17.022L11.6393 16.3692L11.4624 16.218H8.8629L8.69277 16.3692L8.70639 17.022L6.52881 15.9775L7.291 16.6097L8.83567 17.6886H11.4828L13.0343 16.6097L13.7896 15.9775L11.6189 17.022Z" fill="#C0AC9D" stroke="#C0AC9D" stroke-width="0.151515" stroke-linecap="round" stroke-linejoin="round"/>
<path d="M11.4488 14.8301L11.1221 14.5964H9.20315L8.8765 14.8301L8.69275 16.3693L8.86288 16.2181H11.4623L11.6393 16.3693L11.4488 14.8301Z" fill="#161616" stroke="#161616" stroke-width="0.151515" stroke-linecap="round" stroke-linejoin="round"/>
<path d="M18.3897 6.68723L18.9682 3.84244L18.0971 1.1969L11.4488 6.17878L14.0074 8.36389L17.6208 9.429L18.417 8.48761L18.0699 8.23333L18.6211 7.72488L18.1992 7.39503L18.7504 6.96898L18.3897 6.68723Z" fill="#763E1A" stroke="#763E1A" stroke-width="0.151515" stroke-linecap="round" stroke-linejoin="round"/>
<path d="M1.35712 3.84244L1.94234 6.68723L1.56807 6.96898L2.12607 7.39503L1.70417 7.72488L2.25536 8.23333L1.90831 8.48761L2.70449 9.429L6.31791 8.36389L8.87651 6.17878L2.22814 1.1969L1.35712 3.84244Z" fill="#763E1A" stroke="#763E1A" stroke-width="0.151515" stroke-linecap="round" stroke-linejoin="round"/>
<path d="M17.6208 9.42901L14.0074 8.36389L15.0962 10.0268L13.4698 13.2358L15.6202 13.2083H18.8321L17.6208 9.42901Z" fill="#F5841F" stroke="#F5841F" stroke-width="0.151515" stroke-linecap="round" stroke-linejoin="round"/>
<path d="M6.31785 8.36389L2.70447 9.42901L1.5 13.2083H4.7051L6.85544 13.2358L5.22908 10.0268L6.31785 8.36389Z" fill="#F5841F" stroke="#F5841F" stroke-width="0.151515" stroke-linecap="round" stroke-linejoin="round"/>
<path d="M11.2173 10.2055L11.4487 6.17879L12.4967 3.31335H7.82855L8.87649 6.17879L9.10785 10.2055L9.19632 11.4698L9.20313 14.5964H11.1221L11.1289 11.4698L11.2173 10.2055Z" fill="#F5841F" stroke="#F5841F" stroke-width="0.151515" stroke-linecap="round" stroke-linejoin="round"/>
</g>
<defs>
<clipPath id="clip0">
<rect width="18.3333" height="17.5" fill="white" transform="translate(0.833313 0.666626)"/>
</clipPath>
</defs>
</svg>
