<svg width="20" height="21" viewBox="0 0 20 21" fill="none" xmlns="http://www.w3.org/2000/svg">
<path d="M10 5.5C8.19251 5.5 6.72168 6.97083 6.72168 8.77833H8.38835C8.38835 7.88917 9.11168 7.16667 10 7.16667C10.8883 7.16667 11.6117 7.88917 11.6117 8.77833C11.6117 9.27667 11.2108 9.63833 10.5983 10.1333C10.3858 10.3058 10.185 10.47 10.0225 10.6325C9.19085 11.4633 9.16668 12.3458 9.16668 12.4442V13H10.8333L10.8325 12.4725C10.8333 12.4592 10.86 12.1508 11.2 11.8117C11.325 11.6867 11.4825 11.5617 11.6458 11.43C12.295 10.9042 13.2775 10.11 13.2775 8.77833C13.2783 6.97083 11.8075 5.5 10 5.5ZM9.16668 13.8333H10.8333V15.5H9.16668V13.8333Z" fill="#7B828D"/>
<path d="M9.99984 2.16675C5.40484 2.16675 1.6665 5.90508 1.6665 10.5001C1.6665 15.0951 5.40484 18.8334 9.99984 18.8334C14.5948 18.8334 18.3332 15.0951 18.3332 10.5001C18.3332 5.90508 14.5948 2.16675 9.99984 2.16675ZM9.99984 17.1667C6.324 17.1667 3.33317 14.1759 3.33317 10.5001C3.33317 6.82425 6.324 3.83341 9.99984 3.83341C13.6757 3.83341 16.6665 6.82425 16.6665 10.5001C16.6665 14.1759 13.6757 17.1667 9.99984 17.1667Z" fill="#7B828D"/>
</svg>
