<svg width="32" height="32" viewBox="0 0 32 32" fill="none" xmlns="http://www.w3.org/2000/svg">
<path d="M16 32C24.8667 32 32 24.8667 32 16C32 7.13328 24.8667 0 16 0C7.13328 0 0 7.13328 0 16C0 24.8667 7.13328 32 16 32Z" fill="#65E6FF"/>
<path d="M20.4 18.5333C20.4 16.2 19 15.4 16.2 15.0667C14.2 14.8 13.8 14.2667 13.8 13.3333C13.8 12.3999 14.4667 11.8 15.8 11.8C17 11.8 17.6667 12.2 18 13.2C18.0667 13.4 18.2667 13.5333 18.4667 13.5333H19.5333C19.8 13.5333 20 13.3333 20 13.0667V13C19.7333 11.5333 18.5333 10.4 17 10.2668V8.66676C17 8.40004 16.8 8.20004 16.4667 8.13332H15.4667C15.2 8.13332 15 8.33332 14.9333 8.66676V10.2C12.9333 10.4668 11.6667 11.8 11.6667 13.4667C11.6667 15.6667 13 16.5333 15.8 16.8667C17.6667 17.2 18.2667 17.6 18.2667 18.6667C18.2667 19.7335 17.3333 20.4667 16.0667 20.4667C14.3333 20.4667 13.7333 19.7333 13.5333 18.7333C13.4667 18.4667 13.2667 18.3333 13.0667 18.3333H11.9333C11.6667 18.3333 11.4667 18.5333 11.4667 18.8V18.8667C11.7333 20.5333 12.8 21.7333 15 22.0667V23.6667C15 23.9333 15.2 24.1333 15.5333 24.2H16.5333C16.8 24.2 17 24 17.0667 23.6667V22.0667C19.0667 21.7333 20.4 20.3333 20.4 18.5333V18.5333Z" fill="#285C66"/>
<path d="M12.6 25.5333C7.4 23.6667 4.73327 17.8667 6.66671 12.7333C7.66672 9.93326 9.86672 7.79998 12.6 6.79998C12.8667 6.6667 13 6.4667 13 6.13326V5.19998C13 4.93326 12.8667 4.73326 12.6 4.6667C12.5333 4.6667 12.4 4.6667 12.3333 4.73326C5.99999 6.73326 2.53327 13.4667 4.53327 19.8C5.73327 23.5333 8.6 26.4 12.3333 27.6C12.6 27.7333 12.8667 27.6 12.9333 27.3333C13 27.2667 13 27.2 13 27.0667V26.1333C13 25.9333 12.8 25.6667 12.6 25.5333ZM19.6667 4.73326C19.4 4.59998 19.1333 4.73326 19.0667 4.99998C19 5.0667 19 5.13326 19 5.2667V6.19998C19 6.4667 19.2 6.73326 19.4 6.8667C24.6 8.73326 27.2667 14.5333 25.3333 19.6667C24.3333 22.4667 22.1333 24.6 19.4 25.6C19.1333 25.7333 19 25.9333 19 26.2667V27.2C19 27.4667 19.1333 27.6667 19.4 27.7333C19.4667 27.7333 19.6 27.7333 19.6667 27.6667C26 25.6667 29.4668 18.9333 27.4667 12.6C26.2667 8.79998 23.3333 5.93326 19.6667 4.73326Z" fill="#285C66"/>
</svg>
