<svg width="18" height="11" viewBox="0 0 18 11" fill="none" xmlns="http://www.w3.org/2000/svg">
<path d="M4.07991 2.01426C6.79721 -0.646192 11.2028 -0.646192 13.9201 2.01426L14.2471 2.33445C14.383 2.46747 14.383 2.68315 14.2471 2.81617L13.1284 3.91147C13.0605 3.97799 12.9503 3.97799 12.8824 3.91147L12.4324 3.47085C10.5367 1.61486 7.46328 1.61486 5.56763 3.47085L5.08568 3.94272C5.01775 4.00923 4.90761 4.00923 4.83967 3.94272L3.72097 2.84742C3.58511 2.71439 3.58511 2.49872 3.72097 2.3657L4.07991 2.01426ZM16.2337 4.27947L17.2293 5.2543C17.3652 5.38732 17.3652 5.60299 17.2293 5.73601L12.7399 10.1316C12.604 10.2647 12.3837 10.2647 12.2479 10.1316C12.2479 10.1316 12.2479 10.1316 12.2479 10.1316L9.06153 7.01193C9.02756 6.97868 8.97249 6.97868 8.93853 7.01193L5.75225 10.1316C5.61639 10.2647 5.39611 10.2647 5.26024 10.1316C5.26024 10.1316 5.26024 10.1316 5.26024 10.1316L0.770661 5.73596C0.634796 5.60293 0.634796 5.38726 0.770661 5.25424L1.76631 4.27941C1.90218 4.14639 2.12246 4.14639 2.25832 4.27941L5.44471 7.39915C5.47867 7.43241 5.53374 7.43241 5.56771 7.39915C5.56771 7.39915 5.56771 7.39915 5.56771 7.39915L8.75394 4.27941C8.8898 4.14639 9.11008 4.14638 9.24595 4.2794C9.24595 4.2794 9.24595 4.2794 9.24595 4.2794L12.4323 7.39915C12.4663 7.43241 12.5214 7.43241 12.5553 7.39915L15.7417 4.27947C15.8775 4.14645 16.0978 4.14645 16.2337 4.27947Z" fill="#3B99FC"/>
</svg>
